<svg id="Layer_1" data-name="Layer 1" xmlns="http://www.w3.org/2000/svg" viewBox="0 0 50 50"><defs><style>.cls-1{fill:none;}</style></defs><title>hand-logo</title><path class="cls-1" d="M38.17,19.71c-0.49-3.94-.94-7.89-1.43-11.83a10.59,10.59,0,0,0-.35-1.82,1,1,0,0,0-1.15-.8,1.13,1.13,0,0,0-.88,1.11,17.79,17.79,0,0,0,0,2.24,64.12,64.12,0,0,1,0,10,1.76,1.76,0,0,1-1.46,1.61,1.33,1.33,0,0,1-1.8-.88c-0.74-1.54-1.41-3.12-2.15-4.66-1.1-2.3-2.23-4.58-3.34-6.88C25,6.49,24.44,5.2,23.8,4a1.33,1.33,0,0,0-2.14-.3,1.22,1.22,0,0,0-.18,1.6C22.06,6.61,22.68,8,23.2,9.33c0.84,2.19,1.58,4.42,2.44,6.61,0.47,1.18,1.1,2.3,1.68,3.43a1,1,0,0,1-.09,1.38,2,2,0,0,1-2.77-.43,7.71,7.71,0,0,0-.69-0.92c-1.56-1.7-3.17-3.36-4.69-5.1-1.26-1.44-2.41-3-3.6-4.47-0.6-.75-1.12-1.58-1.78-2.27a1.15,1.15,0,0,0-1.9.37,1.49,1.49,0,0,0,0,1.56c0.48,0.79,1,1.6,1.48,2.36,1,1.44,2.07,2.82,3,4.29a54.14,54.14,0,0,0,4.75,6c0.41,0.48.84,1,1.25,1.45a0.79,0.79,0,0,1,0,1.05,1.63,1.63,0,0,1-1.92.52C20,25,19.57,24.7,19.14,24.5a37.62,37.62,0,0,1-8.69-6.09A16.27,16.27,0,0,0,8.4,16.89,1.09,1.09,0,0,0,6.94,17a1.23,1.23,0,0,0,0,1.57,6.93,6.93,0,0,0,.76,1c0.81,0.82,1.64,1.6,2.46,2.4,1.06,1,2.07,2.11,3.19,3.06,1.28,1.1,2.65,2.1,4,3.13a26.92,26.92,0,0,1,5.13,4.56,9,9,0,0,1,2.26,4.47,1.66,1.66,0,0,1-.28,1.09A4.48,4.48,0,0,1,20.88,40c-0.82,0-1.64-.06-2.46,0C16.14,40,14,40.41,12.6,42.53a5.67,5.67,0,0,0-1.24,2.4,0.89,0.89,0,0,0,.43,1,0.8,0.8,0,0,0,1-.35A4.73,4.73,0,0,1,15,44.23a8,8,0,0,1,2.62-.37,23.09,23.09,0,0,1,5.57.58,19.81,19.81,0,0,0,4.77.88V25H40.27a33.9,33.9,0,0,1-1.72-3.79A6,6,0,0,1,38.17,19.71Z"/><path d="M23.23,44.44a22.88,22.88,0,0,0-5.55-.58,8,8,0,0,0-2.63.37,4.75,4.75,0,0,0-2.26,1.38,0.8,0.8,0,0,1-1,.35,0.89,0.89,0,0,1-.43-1,5.67,5.67,0,0,1,1.23-2.4C14,40.41,16.14,40,18.42,39.93c0.82,0,1.64.06,2.46,0a4.48,4.48,0,0,0,3.6-1.65,1.66,1.66,0,0,0,.28-1.09,9,9,0,0,0-2.26-4.47,26.92,26.92,0,0,0-5.13-4.56c-1.34-1-2.71-2-4-3.13-1.12-1-2.13-2-3.19-3.06-0.82-.8-1.66-1.58-2.46-2.4a6.93,6.93,0,0,1-.76-1,1.23,1.23,0,0,1,0-1.57,1.09,1.09,0,0,1,1.46-.13,16.27,16.27,0,0,1,2.05,1.52,37.62,37.62,0,0,0,8.69,6.09c0.43,0.2.82,0.47,1.26,0.66a1.63,1.63,0,0,0,1.92-.52,0.79,0.79,0,0,0,0-1.05c-0.41-.49-0.83-1-1.25-1.45a54.14,54.14,0,0,1-4.75-6c-0.94-1.47-2-2.85-3-4.29-0.53-.76-1-1.56-1.48-2.36a1.49,1.49,0,0,1,0-1.56,1.15,1.15,0,0,1,1.9-.37c0.66,0.69,1.18,1.52,1.78,2.27,1.19,1.5,2.34,3,3.6,4.47,1.52,1.74,3.13,3.4,4.69,5.1a7.71,7.71,0,0,1,.69.92,2,2,0,0,0,2.77.43,1,1,0,0,0,.09-1.38c-0.58-1.14-1.21-2.25-1.68-3.43-0.87-2.18-1.6-4.41-2.44-6.61C22.68,8,22.06,6.61,21.48,5.25a1.22,1.22,0,0,1,.18-1.6A1.33,1.33,0,0,1,23.8,4C24.44,5.2,25,6.49,25.6,7.76c1.11,2.3,2.24,4.58,3.34,6.88,0.74,1.54,1.41,3.12,2.15,4.66a1.33,1.33,0,0,0,1.8.88,1.76,1.76,0,0,0,1.46-1.61,64.12,64.12,0,0,0,0-10,17.79,17.79,0,0,1,0-2.24,1.13,1.13,0,0,1,.88-1.11,1,1,0,0,1,1.15.8,10.59,10.59,0,0,1,.35,1.82c0.48,3.94.94,7.89,1.43,11.83a6,6,0,0,0,.38,1.5A33.9,33.9,0,0,0,40.27,25h1.41a29.38,29.38,0,0,1-1.31-2.8,13.36,13.36,0,0,1-.94-2.61c-0.56-4.08-1-8.21-1.51-12.3a7.18,7.18,0,0,0-.44-1.81A2.25,2.25,0,0,0,35,4a2.4,2.4,0,0,0-1.94,2.21,16.8,16.8,0,0,0,0,2.4,59.08,59.08,0,0,1,0,9.62,0.63,0.63,0,0,1-.48.69c-0.4.1-.44-0.23-0.55-0.47q-1.37-2.88-2.74-5.77C28,9.84,26.67,7,25.28,4.11a5,5,0,0,0-1.22-1.64,2.4,2.4,0,0,0-3,.08,2.43,2.43,0,0,0-.75,3.08C21.14,7.75,22.1,9.84,22.84,12a49.55,49.55,0,0,0,3.1,7.46,1.6,1.6,0,0,1,.09.33l-0.11.1a3.11,3.11,0,0,1-.46-0.36c-0.52-.58-1-1.2-1.54-1.77-1.08-1.16-2.18-2.31-3.26-3.46-0.22-.24-0.4-0.52-0.61-0.77-0.82-1-1.68-1.87-2.45-2.86s-1.66-2.36-2.52-3.5c-1-1.31-2.29-1.6-3.42-.84a2.82,2.82,0,0,0-.89,3.85c0.38,0.64.77,1.28,1.19,1.9,0.89,1.29,1.83,2.55,2.72,3.83,0.63,0.91,1.15,1.91,1.85,2.77,1.29,1.6,2.68,3.13,4,4.69L21,23.88l-0.1.13c-0.37-.2-0.73-0.42-1.11-0.6a38.16,38.16,0,0,1-8.93-6.31,10.63,10.63,0,0,0-2.37-1.52A2.1,2.1,0,0,0,6,16.23a2.56,2.56,0,0,0,.14,3.39c1.76,2.34,4.13,4.06,6.17,6.11a42.66,42.66,0,0,0,4.56,3.64,24,24,0,0,1,4.78,4.3,7.9,7.9,0,0,1,1.83,3.49,0.86,0.86,0,0,1-.22.65,3.7,3.7,0,0,1-2.63.89c-0.67,0-1.35-.06-2,0A9.08,9.08,0,0,0,13.35,40a9.34,9.34,0,0,0-3,4,3,3,0,0,0-.17,1.5,1.94,1.94,0,0,0,2.74,1.61,8.44,8.44,0,0,0,1-.77,7.6,7.6,0,0,1,1.33-.82,5.64,5.64,0,0,1,2.44-.39,20.36,20.36,0,0,1,5.2.5,23,23,0,0,0,5.17,1V45.33A19.81,19.81,0,0,1,23.23,44.44Z"/></svg>