<?xml version="1.0" encoding="utf-8"?>
<!-- Generator: Adobe Illustrator 17.0.0, SVG Export Plug-In . SVG Version: 6.00 Build 0)  -->
<!DOCTYPE svg PUBLIC "-//W3C//DTD SVG 1.1//EN" "http://www.w3.org/Graphics/SVG/1.1/DTD/svg11.dtd">
<svg version="1.1" id="Layer_1" xmlns="http://www.w3.org/2000/svg" xmlns:xlink="http://www.w3.org/1999/xlink" x="0px" y="0px"
	 width="1243.812px" height="878.122px" viewBox="0 0 1243.812 878.122" enable-background="new 0 0 1243.812 878.122"
	 xml:space="preserve">
<g>
	<path fill="#FFFFFF" d="M1132.676,613.068c26.483-33.741,45.476-51.458,85.8-65.969
		c-65.707-31.025-112.179-102.324-112.179-175.078c0-88.418,67.573-146.701,103.637-164.441
		c-24.256,0.673-55.899,1.822-75.253-3.096c-29.3-7.446-56.43-26.996-71.449-53.278c-14.656-25.648-19.297-42.992-22.338-67.753
		c-23.62,45.782-75.904,79.996-144.022,79.996c-52.94,0-110.688-9.995-133.294-74.164c-10.764,67.596-91.515,77.158-149.864,77.158
		c-68.332,0-120.589-55.193-116.725-91.305c-12.552,29.09-39.957,78.639-133.08,93.65c-60.31,9.721-108.97-16.839-136.192-26.365
		c13.266,16.569,23.054,35.841,27.86,56.609c14.621,63.18-18.175,134.258-75.689,164.038c-13.713,7.101-43.976,12.8-43.976,12.8
		s23.875,12.286,39.528,21.2c44.875,25.556,63.215,117.704,52.886,191.683c-12.017,86.066-47.443,133.037-118.996,154.083
		c45.016-10.563,94.275-18.702,135.907,1.444c41.632,20.146,34.611,114.466,34.611,114.466
		c18.715-72.62,79.962-121.484,164.196-119.983c74.859,1.334,144.871,47.373,149.142,122.252
		c12.094-77.074,88.271-122.996,166.152-123.754c77.881-0.757,148.259,43.741,161.844,120.565
		c22.726-63.195,56.211-110.78,145.174-123.756c35.982-5.248,63.143,7.496,78.752,18.483
		C1109.651,714.034,1099.753,655.014,1132.676,613.068z"/>
</g>
<g>
	<g>
		<g>
			<path fill="#FFFFFF" d="M446.494,522.144c-58.338-59.59-143.836-82.128-215.221-125.239
				c-9.483-5.727-18.925-12.004-25.672-20.791c-9.021-11.747-12.348-26.765-15.437-41.25
				c-11.926-55.925-23.883-112.07-27.94-169.108C160.992,148.445,160.132,50.822,150.193,0H20.963
				C14.89,58.933,35.682,204.675,35.682,204.675c6.72,37.955,13.439,75.909,20.159,113.864c7.449,42.074,15,84.51,31.058,124.106
				c5.877,14.491,13.21,28.972,25.237,38.965c11.935,9.916,27.31,14.461,42.219,18.766c50.193,14.49,100.385,28.981,150.578,43.471
				c35.611,10.281,71.222,20.562,106.833,30.843c16.738,4.832,38.489,8.023,48.274-6.392
				C469.823,553.883,458.681,534.593,446.494,522.144z"/>
			<g>
				<path d="M449.676,518.962c-37.393-37.933-85.715-61.32-133.319-83.681c-24.211-11.373-48.48-22.675-71.795-35.823
					c-11.971-6.751-24.382-13.646-33.676-23.962c-9.449-10.488-12.763-25.212-15.69-38.601
					c-6.897-31.553-13.498-63.208-18.948-95.045c-4.59-26.81-8.607-54.028-9.796-81.231c-1.687-38.6-2.41-77.203-5.859-115.712
					c-1.382-15.428-3.121-30.885-6.06-46.102c-0.376-1.944-2.457-3.304-4.339-3.304c-43.077,0-86.153,0-129.23,0
					c-2.638,0-4.255,2.06-4.5,4.5c-1.685,16.795-1.246,33.799-0.548,50.637c0.846,20.416,2.479,40.798,4.391,61.139
					c2.826,30.066,6.363,60.074,10.466,89.992c2.712,19.776,6.823,39.418,10.303,59.072c5.637,31.839,10.958,63.755,17.135,95.495
					c5.893,30.281,13.257,60.394,24.963,89.005c5.012,12.25,11.063,24.001,19.962,33.906c9.072,10.096,21.46,16.075,34.049,20.531
					c14.572,5.158,29.72,8.906,44.565,13.191c15.884,4.586,31.767,9.171,47.651,13.757c31.774,9.173,63.547,18.346,95.321,27.519
					c15.898,4.59,31.796,9.179,47.694,13.769c14.834,4.283,29.623,9.096,44.634,12.719c10.542,2.544,22.096,3.904,32.609,0.555
					c10.644-3.391,17.368-12.601,18.549-23.498C469.779,543.27,459.12,528.786,449.676,518.962
					c-4.029-4.191-10.385,2.181-6.364,6.364c8.281,8.614,17.853,21.224,15.675,33.991c-2.126,12.463-15.17,15.311-25.816,14.861
					c-13.362-0.565-26.57-5.665-39.286-9.336c-15.898-4.59-31.796-9.179-47.694-13.769c-63.547-18.346-127.093-36.691-190.64-55.037
					c-13.5-3.897-26.994-7.971-38.535-16.267c-11.245-8.083-18.203-21.056-23.708-33.411
					c-12.532-28.126-19.673-58.688-25.699-88.764c-6.335-31.615-11.54-63.473-17.16-95.22c-3.67-20.727-8.026-41.451-10.902-62.304
					c-3.962-28.724-7.457-58.912-10.24-88.294c-1.927-20.341-3.513-40.724-4.391-61.139C24.191,33.805,23.779,16.789,25.463,0
					c-1.5,1.5-3,3-4.5,4.5c43.077,0,86.153,0,129.23,0c-1.446-1.101-2.893-2.202-4.339-3.304
					c8.087,41.865,9.008,85.339,10.506,127.84c0.5,14.184,0.688,28.397,1.806,42.55c2.537,32.129,7.589,64.028,13.55,95.682
					c3.009,15.977,6.299,31.9,9.651,47.808c3.054,14.492,5.521,29.341,10.216,43.416c4.354,13.055,11.83,23.844,22.647,32.347
					c10.484,8.242,22.494,14.677,34.177,21.035c46.848,25.492,97.179,44.21,142.619,72.348
					c18.918,11.715,36.65,25.242,52.287,41.105C447.391,529.464,453.752,523.097,449.676,518.962z"/>
			</g>
		</g>
	</g>
	<g>
		<path fill="#E20031" d="M485.864,603.958c4.245-0.109,10.169-3.165,7.912-6.762c-0.586-0.933-1.615-1.475-2.597-1.975
			c-36.292-18.461-72.584-36.921-108.875-55.382c-5.029-2.558-10.254-5.17-15.891-5.426c-5.637-0.256-11.826,2.525-13.709,7.844
			c-1.822,5.145,0.799,10.757,3.824,15.301c7.95,11.945,19.261,21.626,32.289,27.638
			C388.815,585.197,444.431,605.023,485.864,603.958z"/>
		<g>
			<path d="M485.864,608.458c4.792-0.406,9.315-2.035,12.018-6.217c3.413-5.28-2.083-9.709-6.189-11.798
				c-14.634-7.444-29.268-14.888-43.901-22.331c-14.634-7.444-29.268-14.888-43.901-22.331c-6.943-3.532-13.881-7.075-20.831-10.592
				c-6.003-3.038-12.411-5.705-19.27-5.178c-12.445,0.957-19.317,12.602-14.325,23.953c5.2,11.824,15.553,21.595,25.995,28.846
				c11.999,8.332,26.837,11.672,40.745,15.369C438.784,604.18,462.402,608.928,485.864,608.458c5.796-0.116,5.807-9.116,0-9
				c-23.963,0.479-47.86-4.669-70.869-10.927c-7.271-1.977-14.491-4.154-21.641-6.532c-7.432-2.472-14.091-7.035-20.008-12.1
				c-6.612-5.66-27.01-26.67-9.668-30.844c6.606-1.59,14.296,3.623,19.866,6.457c7.61,3.871,15.219,7.742,22.829,11.612
				c14.634,7.444,29.268,14.888,43.901,22.331c7.024,3.573,14.048,7.146,21.073,10.719c3.512,1.786,7.024,3.573,10.536,5.36
				c1.756,0.893,3.512,1.786,5.268,2.68c0.923,0.453,1.835,0.926,2.736,1.42c0.02-1.503-0.504-1.74-1.572-0.713
				c-0.792,0.297-1.609,0.476-2.451,0.537C480.125,599.945,480.078,608.949,485.864,608.458z"/>
		</g>
	</g>
</g>
<g>
	<path d="M539.049,284.689c-25.617-4.163-51.16-4.053-76.735,0.395c-5.645,0.982-8.739,7.806-7.333,12.916
		c0.32,1.163,0.801,2.186,1.402,3.078c1.539,18.807,3.247,37.6,5.133,56.376c0.988,9.836,2.035,19.666,3.121,29.491
		c0.579,5.24,1.178,10.478,1.785,15.715c0.721,6.217,1.162,10.864,6.775,14.617c3.641,2.435,9.859,1.782,12.724-1.642
		c0.101-0.121,0.202-0.241,0.303-0.362c3.332-3.982,3.727-8.03,1.642-12.724c-0.076-0.171-0.152-0.343-0.229-0.515
		c-0.218-0.49-0.48-0.925-0.761-1.335c-1.154-6.371-1.206-13.413-1.887-19.65c-1.001-9.172-1.951-18.349-2.867-27.53
		c-0.154-1.545-0.299-3.091-0.451-4.636c17.343-3.077,34.856-4.612,52.474-4.767c13.535-0.12,13.547-21.12,0-21
		c-18.261,0.161-36.447,1.861-54.445,4.891c-0.727-8.032-1.419-16.067-2.083-24.105c18.526-2.276,37.46-1.953,55.85,1.036
		c5.644,0.917,11.278-1.377,12.916-7.333C547.775,292.542,544.706,285.608,539.049,284.689z"/>
	<path d="M560.052,275.219c-5.955,1.638-8.253,7.272-7.333,12.916c6.263,38.426,8.679,77.402,7.588,116.313
		c-0.38,13.55,20.621,13.513,21,0c1.145-40.827-1.769-81.591-8.338-121.895C572.047,276.897,565.118,273.826,560.052,275.219z"/>
	<path d="M681.559,270.421c-5.13-1.411-11.908,1.694-12.916,7.334c-5.003,27.992-9.947,55.997-15.25,83.934
		c-11.791-25.628-24.039-51.044-36.751-76.23c-4.948-9.804-19.188-4.546-19.567,5.3c-1.52,39.547-0.483,79.141,3.104,118.554
		c0.519,5.698,4.384,10.5,10.5,10.5c5.331,0,11.02-4.791,10.5-10.5c-2.267-24.905-3.512-49.881-3.74-74.873
		c10.64,22.078,20.935,44.321,30.877,66.725c3.668,8.265,17.478,5.966,19.191-2.508c7.75-38.322,14.506-76.834,21.385-115.319
		C689.899,277.709,687.451,272.042,681.559,270.421z"/>
	<path d="M782.875,352.236c0.101,0.003,0.201,0.004,0.302,0.007c13.549,0.454,13.505-20.547,0-21
		c-8.997-0.302-17.923,0.14-26.819,1.162c-3.197-0.135-6.452,0.293-9.667,1.332c-0.167,0.027-0.334,0.049-0.5,0.076
		c0.01,0.023,0.019,0.046,0.029,0.068c-0.849,0.291-1.696,0.613-2.537,0.99c-4.232,1.897-5.971,7.692-4.825,11.858
		c1.638,5.954,7.272,8.254,12.916,7.333c1.851-0.302,3.707-0.552,5.565-0.779c2.854,1.429,5.721,5.515,6.562,7.865
		c2.364,6.606,0.73,13.347-3.12,18.989c-7.88,11.545-25.894,9.839-35.128,1.572c-11.991-10.737-12.295-31.832-11.262-46.617
		c1.174-16.803,7.532-33.002,16.983-46.821c3.236-4.731,0.907-11.628-3.767-14.366c-5.203-3.048-11.142-0.947-14.366,3.767
		c-13.78,20.148-20.694,44.559-20.116,68.923c0.296,12.48,2.709,24.868,7.769,36.28c5.167,11.654,15.632,19.709,27.277,24.13
		c23.228,8.818,50.66-5.872,56.655-29.64C786.904,369.123,786.193,360.096,782.875,352.236z"/>
	<path d="M796.237,401.238c-0.085,5.698,4.84,10.535,10.5,10.5c14.842-0.092,29.683-0.183,44.525-0.275
		c6.674-0.041,16.096,1.545,22.158-1.643c7.621-4.009,9.578-16.806,0.478-20.696c-4.393-1.878-9.256-1.741-12.582,1.488
		c-7.857,0.228-15.813-0.114-23.619-0.065c-6.77,0.042-13.537,0.083-20.305,0.125c0.203-13.553,0.406-27.107,0.609-40.66
		c5.438-0.45,10.876-0.9,16.313-1.35c6.877-0.569,14.279-0.5,20.922-2.481c12.945-3.861,7.427-24.131-5.583-20.25
		c-4.863,1.451-10.294,1.314-15.339,1.731c-5.322,0.44-10.644,0.881-15.966,1.322c0.315-14.811,0.755-29.669,0.257-44.471
		c13.536,0.258,27.065-0.14,40.571-1.217c5.703-0.455,10.5-4.432,10.5-10.5c0-5.379-4.787-10.956-10.5-10.5
		c-16.656,1.328-33.346,1.641-50.04,0.94c-2.381-0.1-4.332,0.476-5.874,1.481c-3.637,1.691-6.444,5.342-6.165,9.496
		c1.423,21.13,0.404,42.427,0.087,63.583C796.87,358.942,796.554,380.09,796.237,401.238z"/>
	<path d="M964.069,394.138c1.661-6.038-2.05-10.728-7.334-12.916c-7.795-3.229-12.069-16.895-15.681-25.009
		c-2.869-6.445-6.441-12.331-10.642-17.712c6.204-2.271,11.979-5.831,17.083-10.674c11.369-10.788,14.721-26.861,11.648-41.791
		c-6.324-30.724-44.744-42.564-68.028-23.633c-4.74,0.564-9.131,3.913-9.234,10.059c-0.669,40.085,1.217,80.164,5.646,120.01
		c0.632,5.687,4.298,10.5,10.5,10.5c5.244,0,11.134-4.799,10.5-10.5c-1.899-17.082-3.327-34.206-4.29-51.356
		c9.928,8.152,15.783,19.038,20.886,30.699c5.667,12.949,12.483,24.045,26.029,29.656
		C956.451,403.667,962.693,399.141,964.069,394.138z M902.785,280.119c5.562-5.431,13.25-7.127,20.503-5.49
		c7.954,1.794,13.106,8.052,15.281,15.668c4.652,16.29-10.679,32.916-27.888,30.318c-2.834-0.428-5.314,0.013-7.332,1.02
		C902.859,307.806,902.667,293.964,902.785,280.119z"/>
	<path d="M722.232,532.63c-15.178,0.455-30.209,2.918-44.647,7.5c-0.928-7.286-1.882-14.568-2.88-21.845
		c15.371-4.709,31.121-8.245,47.061-10.278c5.676-0.724,10.5-4.228,10.5-10.5c0-5.174-4.808-11.226-10.5-10.5
		c-17.755,2.265-35.189,5.829-52.267,10.953c-2.723-2.189-6.704-3.073-9.845-2.21c-4.466,1.229-6.781,4.617-7.354,8.591
		c-3.272,2.532-5.028,6.581-3.812,11c0.79,2.872,2.992,5.378,5.71,6.737c5.027,36.644,9.069,73.419,12.185,110.276
		c0.482,5.701,4.411,10.5,10.5,10.5c5.358,0,10.983-4.788,10.5-10.5c-2.005-23.708-4.421-47.376-7.201-71.002
		c13.591-4.628,27.619-7.289,42.049-7.722C735.743,553.225,735.782,532.224,722.232,532.63z"/>
	<path d="M803.963,500.751c-8.321-5.663-19.158-7.311-28.799-4.717c-1.618,0.435-2.948,1.128-4.016,2
		c-4.566-3.059-11.319-3.089-15.024,2.95c-15.324,24.983-23.389,53.891-23.516,83.181c-0.108,24.961,8.348,59.422,40.013,57.453
		c30.316-1.885,48.564-32.325,52.811-59.348C829.789,554.559,829.636,518.225,803.963,500.751z M806.129,563.121
		c-0.396,20.646-6.27,47.707-28.115,56.009c-23.169,8.805-24.621-22.807-24.37-38.379c0.372-23.131,7.11-45.849,18.636-65.825
		c2.188,1.579,5.071,2.272,8.467,1.359c9.084-2.444,16.771,4.749,20.764,12.292C806.886,538.733,806.343,552.004,806.129,563.121z"
		/>
	<path d="M884.151,490.8c-7.023-1.883-14.896-1.615-21.706,0.951c-4.334-1.8-9.639-1.027-12.653,4.237
		c-14.879,25.99-19.114,57.203-18.189,86.774c0.47,15.032,4.563,30.064,15.455,40.92c10.56,10.525,26.57,12.776,40.43,8.585
		c30.869-9.336,39.135-44.904,37.457-73.127C923.288,531.217,914.727,498.999,884.151,490.8z M886.487,609.855
		c-7.46,4.695-17.838,5.048-24.578-1.022c-8.653-7.792-9.361-20.856-9.4-31.662c-0.08-21.923,2.667-44.594,12.243-64.49
		c0.951-0.004,1.906-0.163,2.836-0.529c8.171-3.219,16.204-0.611,22.624,5.271c8.35,7.649,11.006,19.836,12.667,30.548
		C906.042,568.389,906.356,597.35,886.487,609.855z"/>
	<path d="M1023.723,554.539c-1.941-19.93-6.401-40.375-21.553-54.628c-16.04-15.089-38.166-14.049-57.738-7.413
		c-0.171,0.058-0.326,0.13-0.49,0.193c-0.616-0.11-1.256-0.177-1.932-0.177c-5.259,0-11.115,4.798-10.5,10.5
		c4.413,40.932,5.858,82.12,4.325,123.261c-0.217,5.823,3.541,9.127,7.935,9.938c2.559,3.31,7.049,5.311,11.127,3.827
		c18.872-6.866,37.87-14.192,52.265-28.749c6.788-6.864,11.77-15.232,14.77-24.379
		C1025.318,576.593,1024.759,565.179,1023.723,554.539z M1001.196,582.812c-2.028,6.181-6.52,11.407-11.12,15.836
		c-9.094,8.755-21.106,13.883-32.95,18.289c0.924-35.138-0.321-70.294-3.732-105.279c12.724-3.889,25.821-5.161,36.044,5.165
		c10.479,10.584,12.383,27.352,13.631,41.437C1003.808,566.598,1003.826,574.797,1001.196,582.812z"/>
</g>
</svg>
